<svg fill="none" viewBox="0 0 115 26" xmlns="http://www.w3.org/2000/svg">
<path d="M97.0057 0.414062C97.1834 0.414119 97.3024 0.503975 97.3026 0.709961V5.97754H103.988C104.137 5.97757 104.285 6.06799 104.344 6.21582L107.345 15.0029C107.522 15.5051 107.671 16.0386 107.819 16.7197C107.938 16.0386 108.117 15.507 108.265 15.0029L111.117 6.21582C111.176 6.06803 111.325 5.97772 111.473 5.97754H114.651C114.858 5.97754 114.978 6.12585 114.89 6.33203L107.61 25.7422C107.551 25.9192 107.433 25.9795 107.284 25.9795H104.015C103.809 25.9792 103.69 25.8319 103.777 25.626L105.857 20.2998L101.459 9.1748H97.2986V15.6836C97.2986 16.6296 97.8938 17.2215 98.785 17.2217H100.538C100.716 17.2217 100.835 17.3113 100.835 17.5176V20.1221C100.835 20.2992 100.716 20.418 100.538 20.418H97.5672C95.2804 20.4178 93.6748 18.82 93.6746 16.4824V9.17285H90.9744C90.7971 9.17245 90.6777 9.05365 90.6776 8.87695V6.27246C90.6776 6.09559 90.797 5.97697 90.9744 5.97656H93.6785V0.709961C93.6787 0.533246 93.798 0.414316 93.9754 0.414062H97.0057ZM61.3221 5.68066C63.8768 5.68066 65.1554 6.71614 66.0174 8.22461C65.9275 7.72243 65.8983 7.33694 65.8983 6.80371V6.27051C65.8983 6.09349 66.0184 5.97481 66.1961 5.97461H69.2254C69.4033 5.97461 69.5233 6.06412 69.5233 6.27051V20.8877C69.5232 23.8173 67.3822 25.9766 64.4109 25.9766H57.9637C57.8084 25.9763 57.6978 25.9073 57.6727 25.752L57.6668 25.6836V23.0791C57.6669 22.9024 57.7864 22.7836 57.9637 22.7832H63.6385C64.9462 22.7832 65.8963 21.7771 65.8963 20.5059V19.4707C65.8963 18.8206 65.9266 18.2285 66.0164 17.666C65.1544 18.9681 63.7582 20.0624 61.5008 20.0625C57.7282 20.0623 54.993 17.428 54.993 12.8711C54.993 8.31446 58.142 5.68111 61.3221 5.68066ZM45.9598 0.413086C46.1083 0.413086 46.2272 0.471501 46.2859 0.650391L54.6063 20.0605C54.6958 20.2667 54.576 20.4141 54.367 20.4141H50.6238C50.4756 20.4139 50.3563 20.3555 50.2977 20.1768L50.0008 19.4082C48.9021 16.3909 46.7904 14.6152 43.8797 14.6152C40.9693 14.6155 38.7389 16.3911 37.699 19.4082L37.4315 20.1768C37.3727 20.3538 37.2235 20.4141 37.075 20.4141V20.416H33.5682C33.3615 20.4157 33.2424 20.2684 33.3299 20.0625L41.6512 0.650391C41.7098 0.473402 41.83 0.413209 41.9783 0.413086H45.9598ZM75.7918 5.97656C75.9697 5.97656 76.0887 6.06607 76.0887 6.27246V20.1201C76.0887 20.3265 75.9697 20.416 75.7918 20.416H72.7625C72.5849 20.4158 72.4647 20.2971 72.4647 20.1201V6.27246C72.4647 6.06624 72.5849 5.97671 72.7625 5.97656H75.7918ZM82.3582 0.415039C82.536 0.41505 82.6549 0.503924 82.6551 0.709961V20.1201C82.6551 20.2973 82.5361 20.416 82.3582 20.416H79.3279C79.1504 20.4157 79.0311 20.2971 79.0311 20.1201V0.709961C79.0313 0.533294 79.1506 0.415353 79.3279 0.415039H82.3582ZM88.9246 5.97656C89.1024 5.97666 89.2215 6.06618 89.2215 6.27246V20.1201C89.2215 20.3264 89.1024 20.4159 88.9246 20.416H85.8943C85.7167 20.4158 85.5975 20.2971 85.5975 20.1201V6.27246C85.5975 6.06624 85.7167 5.97671 85.8943 5.97656H88.9246ZM4.27032 5.97656C4.41889 5.97656 4.53873 6.00538 4.62677 6.15332L9.67755 13.6396C11.044 15.6524 12.1741 16.8057 15.0555 16.8057H18.8885C19.0664 16.8057 19.1854 16.8952 19.1854 17.1016V20.1191C19.1851 20.296 19.0662 20.415 18.8885 20.415H14.4608C10.0041 20.4149 8.22102 18.4326 6.43829 15.7988L0.0525504 6.33203C-0.0666199 6.15488 0.023 5.97754 0.259582 5.97754V5.97656H4.27032ZM62.4207 8.55176C60.2807 8.55222 58.6776 10.3564 58.6776 12.8711C58.6776 15.3858 60.222 17.19 62.4207 17.1904C64.6198 17.1904 66.1063 15.3862 66.1063 12.8711C66.1062 10.3561 64.5611 8.55176 62.4207 8.55176ZM16.4842 0.415039C20.9411 0.415054 22.7239 2.39649 24.5067 5.03027L30.8953 14.499C31.014 14.676 30.9237 14.8525 30.6873 14.8525L30.6854 14.8545H26.6746C26.5262 14.8545 26.4072 14.8254 26.3192 14.6777L21.2674 7.19043C19.9011 5.17785 18.7707 4.02539 15.8895 4.02539H12.0565C11.8786 4.02535 11.7596 3.90663 11.7596 3.72949V0.709961C11.7598 0.53309 11.8788 0.415081 12.0565 0.415039H16.4842ZM15.4715 6.71582C17.5514 6.71582 19.1854 8.34381 19.1854 10.415C19.1851 12.486 17.5512 14.1133 15.4715 14.1133C13.3919 14.1132 11.7579 12.486 11.7576 10.415C11.7576 8.34387 13.3917 6.71593 15.4715 6.71582ZM43.909 3.34375C43.6413 4.20198 43.374 4.91307 43.0477 5.74023L40.7293 11.5107H47.0291L44.7108 5.74023C44.3844 4.882 44.1456 4.20205 43.909 3.34375ZM74.2772 0C75.5848 7.43225e-05 76.6541 1.06495 76.6541 2.36719C76.654 3.66937 75.5848 4.7343 74.2772 4.73438C72.9697 4.73413 71.9003 3.66926 71.9002 2.36719C71.9002 1.06506 72.9696 0.000246635 74.2772 0ZM87.409 0C88.7167 0 89.7859 1.0649 89.7859 2.36719C89.7859 3.66941 88.7167 4.73438 87.409 4.73438C86.1017 4.73395 85.0321 3.66915 85.032 2.36719C85.032 1.06516 86.1016 0.000425986 87.409 0Z" fill="currentColor"></path>
</svg>